<?xml version="1.0" encoding="utf-8"?>
<!-- Generator: Adobe Illustrator 22.1.0, SVG Export Plug-In . SVG Version: 6.00 Build 0)  -->
<svg version="1.1" id="Calque_1" xmlns="http://www.w3.org/2000/svg" xmlns:xlink="http://www.w3.org/1999/xlink" x="0px" y="0px"
	 viewBox="0 0 40 40" style="enable-background:new 0 0 40 40;" xml:space="preserve">
<style type="text/css">
</style>
<title>Plan de travail 1</title>
<path class="st0" d="M20,20.4c-4.4,0-7.9-4.4-7.9-9.8c0-5,3.2-8.3,7.9-8.3s7.9,3.3,7.9,8.3C27.9,16,24.4,20.4,20,20.4z M20,3.7
	c-3.1,0-6.5,1.8-6.5,6.9c0,4.6,2.9,8.4,6.5,8.4s6.5-3.7,6.5-8.4C26.5,5.5,23.1,3.7,20,3.7z M20,37.7c-11.5,0-14.8-5.7-14.9-6
	C5,31.6,5,31.5,5,31.4c0-4.3,3.9-9,15-9s15,4.6,15,9c0,0.1,0,0.2-0.1,0.3C34.8,32,31.5,37.7,20,37.7L20,37.7z M6.4,31.2
	c0.6,0.8,4,5.1,13.6,5.1s13-4.2,13.6-5.1c-0.1-4.5-5.3-7.4-13.6-7.4S6.5,26.7,6.4,31.2z"/>
</svg>
