<?xml version="1.0" encoding="UTF-8"?>
<svg width="20px" height="12px" viewBox="0 0 20 12" version="1.1" xmlns="http://www.w3.org/2000/svg" xmlns:xlink="http://www.w3.org/1999/xlink">
    <!-- Generator: Sketch 64 (93537) - https://sketch.com -->
    <title>Mask</title>
    <desc>Created with Sketch.</desc>
    <defs>
        <path d="M18.9474074,9.09225261 L24.8733333,14.2774378 C24.9540741,14.3478082 25,14.4485489 25,14.5559563 C25,14.6633637 24.9540741,14.7641045 24.8733333,14.8344748 L18.9474074,20.01966 C18.877037,20.0811415 18.7903704,20.1115119 18.7037037,20.1115119 C18.6007407,20.1115119 18.4985185,20.0685489 18.4251852,19.9848452 C18.2896296,19.8307711 18.3059259,19.5974378 18.46,19.462623 L23.642,14.926 L5.37037037,14.9263267 C5.16592593,14.9263267 5,14.7604008 5,14.5559563 C5,14.3515119 5.16592593,14.1855859 5.37037037,14.1855859 L23.643,14.185 L18.46,9.64928965 C18.3059259,9.51447484 18.2896296,9.2811415 18.4251852,9.12706743 C18.56,8.97151187 18.7948148,8.9574378 18.9474074,9.09225261 Z" id="path-1"></path>
    </defs>
    <g id="Symbols" stroke="none" stroke-width="1" fill="none" fill-rule="evenodd">
        <g id="Icons-/-Functions-/-Arrow-Right" transform="translate(-5.000000, -9.000000)">
            <mask id="mask-2" fill="white">
                <use xlink:href="#path-1"></use>
            </mask>
            <use id="Mask" fill="#292929" xlink:href="#path-1"></use>
        </g>
    </g>
</svg>