<?xml version="1.0" encoding="utf-8"?>
<!-- Generator: Adobe Illustrator 22.1.0, SVG Export Plug-In . SVG Version: 6.00 Build 0)  -->
<svg version="1.1" id="Calque_1" xmlns="http://www.w3.org/2000/svg" xmlns:xlink="http://www.w3.org/1999/xlink" x="0px" y="0px"
	 viewBox="0 0 40 40" style="enable-background:new 0 0 40 40;" xml:space="preserve">
<style type="text/css">
	.st0{fill:#231F20;}
</style>
<title>Plan de travail 1Basket</title>
<path class="st0" d="M37,33.9l-3.4-19.4c-0.2-1.3-1.5-2.4-2.8-2.4h-3.5V8.5c0-2.7-2.2-4.9-4.9-4.9c-0.8,0-1.7,0.2-2.4,0.6
	c-2.3-1.3-5.2-0.5-6.5,1.8c-0.5,0.7-0.7,1.6-0.7,2.4v3.6H9.5c-1.5,0-2.7,1.1-2.9,2.4L3,33.9c-0.2,1.1,0.5,2.2,1.5,2.4
	c0.1,0,0.4,0,0.5,0h30c1.1,0,2.1-0.8,2.1-1.9C37,34.3,37,34.1,37,33.9z M22.4,4.8c2.1,0,3.6,1.6,3.6,3.6v3.6h-3.6V8.5
	c0-1.2-0.5-2.4-1.3-3.4C21.5,5,21.9,4.8,22.4,4.8z M21.2,8.5v3.6h-2.4V8.5c0-1,0.5-2.1,1.2-2.7C20.7,6.4,21.2,7.4,21.2,8.5z
	 M13.8,8.5c0-2.1,1.6-3.6,3.6-3.6c0.5,0,1,0.1,1.3,0.2c-0.8,1-1.2,2.1-1.2,3.4v3.6h-3.6L13.8,8.5z M25.1,35.2H5
	c-0.2,0-0.5-0.1-0.6-0.2c-0.2-0.2-0.2-0.5-0.2-0.7l3.4-19.4c0.2-0.8,1-1.5,1.8-1.5h3.3v2.4h1.2v-2.4h7.3v2.4h1.2v-2.4h5.8L25.1,35.2
	z M35.5,34.9c-0.1,0.1-0.4,0.2-0.6,0.2h-8.7l3.3-21.8h1.1c0.8,0,1.5,0.6,1.7,1.5l3.4,19.4C35.8,34.4,35.8,34.7,35.5,34.9z"/>
<g>
	<g>
		<path class="st0" d="M22.6,26.1C22.5,26,22.4,26,22.3,26c-0.1,0-0.2-0.2-0.2-0.2c-0.1,0-0.2,0.1-0.2,0.1c-0.1,0-0.1-0.2-0.1-0.2
			c-0.1,0-0.2,0.1-0.3,0.1c-0.1,0-0.1-0.2-0.1-0.2c-0.1,0-0.2,0.1-0.3,0.1c-0.1,0-0.1-0.2-0.1-0.2c-0.1,0-0.2,0.1-0.3,0.1
			c-0.1,0-0.2,0-0.4-0.1c0,0-0.1-0.1-0.2-0.1c0,0-0.1,0,0,0.1c0,0.2,0.4,0.3,0.8,0.5c0.4,0.1,0.8,0.2,1.1,0.3
			c0.2,0.1,0.2,0.2,0.2,0.2c0,0.1-0.1,0.1-0.3,0c-0.1-0.1-0.1-0.2-0.2-0.2c-0.1,0-0.2,0.2-0.3,0.1c-0.1,0-0.1-0.2-0.2-0.2
			c-0.1,0-0.2,0.1-0.3,0.1c-0.1,0-0.1-0.2-0.2-0.2c-0.1,0-0.2,0.1-0.3,0.1c-0.1,0-0.1-0.2-0.2-0.3c-0.1,0-0.3,0.1-0.4,0
			c-0.5-0.4-0.4-0.5-0.8-0.6c-0.2-0.1-0.5,0-0.6,0c-0.4,0-0.3-0.3-0.3-0.3c0.1,0,0.2,0.1,0.5,0c0.3-0.1,0.4-0.1,0.8,0
			c0.3,0.1,0.5,0,0.6,0c0.1,0,0.1,0,0.2,0c0.1,0.1,0.2,0.1,0.2,0.1c0.1,0,0-0.2,0.2-0.3c0.1,0,0.2,0.1,0.3,0.1c0.1,0,0-0.2,0.2-0.3
			c0.1,0,0.2,0.1,0.3,0.1c0.1,0,0-0.2,0.2-0.3c0.1,0,0.2,0.1,0.3,0.1c0.1,0,0.1-0.2,0.2-0.3c0.1,0,0.2,0.1,0.3,0.1v0
			c0.1,0,0.1-0.1,0.1-0.2c0,0,0-0.1,0.1-0.1c0.1-0.1,0.2-0.2,0.1-0.4c-0.1-0.1-0.2-0.1-0.5-0.1c-0.2,0.1-1.8,0.4-1.8,0.4
			c-0.2-0.4-0.4-0.2-0.8-0.2c-0.2,0-0.6-0.3-1.2,0.3c-0.3-0.1-0.6,0-0.8,0.1c-0.3-0.1-1-0.5-2.3-0.5c-0.4,0-1.2,0.1-2.5,0.4
			c-0.3,0.1-0.7,0.1-0.7-0.1c-0.1-0.2,0.2-0.4,0.7-0.7c1.3-0.6,2.2-0.5,3.9-1.4c0.9-0.5,1-1.1,1-1.2c0-0.1-0.1-0.1-0.2,0
			c-0.3,0.4-0.4,0.4-0.5,0.3c-0.1-0.1-0.2,0.1-0.4,0.2c-0.1,0.1-0.1,0-0.2-0.1c-0.1-0.1-0.3,0.2-0.4,0.2c-0.1,0.1-0.2,0-0.2-0.1
			c0,0-0.1,0-0.1,0c-0.3,0.3-0.3,0.2-0.4,0.2c-0.1-0.1-0.1-0.1-0.3,0.1c-0.1,0.1-0.3,0.2-0.4,0.1c-0.1-0.1-0.1-0.2-0.4,0
			c-0.2,0.1-0.3,0.2-0.3,0.1c0-0.1,0-0.3-0.3-0.1c-0.2,0.2-0.3,0.3-0.4,0.1c-0.1-0.2-0.2,0-0.4,0.1c-0.1,0.1-0.2,0.2-0.3,0.1
			c-0.1-0.2-0.2,0-0.4,0.2c-0.1,0.1-0.2,0.1-0.3,0c-0.1-0.1-0.2,0.2-0.4,0.4c0,0-0.1,0.1-0.2,0c-0.1-0.1-0.3,0.4-0.4,0.5
			c-0.1,0.2-0.2,0-0.3,0.1c-0.3,0.4-0.5,0.8-0.6,1.6c-0.1,0.9,0.2,1.7,0.6,1.9c0,0,0,0.1-0.1,0.2c-0.1,0.3-0.1,0.6,0,0.8
			c0.1,0.2,0.4,0.6,0.5,0.2c0.1-0.2,0.1-0.2,0.3,0c0.3,0.2,0.2-0.1,0.2-0.2c0-0.1,0.1-0.1,0.3,0c0.1,0.1,0.2,0,0.2-0.2
			c0.1-0.5-0.1-0.6-0.3-0.6c-0.2,0-0.3,0-0.3,0c0.3-0.5,0.4-0.8,0-1.1c0.1,0,0.1,0,0.2,0c0.1,0,0.2,0.1,0.2,0.2
			c0.1,0.1,0.1,0.3,0,0.7c0.1,0,0.4,0,0.5,0.3c0.2,0.1,1.2,0.1,1.7,0.1c0.2,0,0.2-0.2,0.4-0.3c0.2-0.2,0.4-0.4,0.6-0.2
			c-0.3,0.1-0.6,0.4-0.6,0.7c0,0.2,0.1,0.3,0.3,0.5c0.2,0.1,0.2,0.3,0.3,0.5c0.1,0.2,0.2,0.2,0.3,0c0-0.3,0.1-0.2,0.2-0.1
			c0.1,0.1,0.2,0.1,0.2-0.1c0-0.2,0.1-0.3,0.3-0.1c0.1,0.1,0.2,0.1,0.2-0.1c0-0.2,0.1-0.2,0.2-0.1c0,0,0.1,0.1,0.1,0.1
			c0.1,0,0.2-0.2,0.1-0.4c0-0.1-0.1-0.2-0.6-0.3c-0.2,0-0.1-0.2-0.1-0.2c1.3,0.1,2.4-0.1,3.2-0.6c0.9,0.2,2.2,0.2,2.7,0.2
			c0.4,0,0.8,0,1-0.2C22.8,26.4,22.7,26.2,22.6,26.1z M19.9,24c0-0.1,0.1-0.1,0.1-0.1c0.1,0,0.1,0.1,0.1,0.1L19.9,24
			C19.8,24.1,19.8,24.1,19.9,24z M19.2,24c0.2,0,0.3,0.1,0.3,0.2c0,0-0.3,0.1-0.4,0.1c-0.1,0-0.1,0-0.1-0.1C19,24.1,19.1,24,19.2,24
			z M12.2,22.4c0.1-0.1,0.2-0.1,0.4-0.1c0,0,0,0,0,0c0,0.1,0,0.2-0.1,0.3c0,0,0,0,0,0C12.4,22.6,12.3,22.5,12.2,22.4
			C12.2,22.5,12.2,22.5,12.2,22.4z M11.7,22.7c0.1-0.1,0.2-0.1,0.4-0.1c0,0,0,0,0,0c0,0.1,0,0.2-0.1,0.3c0,0,0,0,0,0
			C11.9,22.8,11.8,22.8,11.7,22.7C11.6,22.7,11.6,22.7,11.7,22.7z M11.9,23.3C11.9,23.3,11.9,23.3,11.9,23.3c0,0.1,0,0.2,0,0.3
			c0,0,0,0,0,0c-0.1,0-0.2-0.1-0.3-0.1c0,0,0,0,0,0C11.6,23.3,11.8,23.3,11.9,23.3z M11.7,23.8c0,0.1,0,0.2-0.1,0.3c0,0,0,0,0,0
			c-0.1,0-0.2-0.1-0.3-0.1c0,0,0,0,0,0C11.4,23.8,11.5,23.8,11.7,23.8C11.7,23.7,11.7,23.7,11.7,23.8z M11.2,23
			c0.1-0.1,0.2-0.1,0.4-0.1c0,0,0,0,0,0c0,0.1,0,0.2-0.1,0.3c0,0,0,0,0,0C11.4,23.2,11.3,23.1,11.2,23C11.1,23.1,11.1,23,11.2,23z
			 M10.8,23.5c0.1-0.1,0.2-0.1,0.4-0.1c0,0,0,0,0,0c0,0.1,0,0.2-0.1,0.3c0,0,0,0,0,0C11,23.6,10.9,23.6,10.8,23.5
			C10.8,23.5,10.8,23.5,10.8,23.5z M10.6,24c0.1-0.1,0.2-0.1,0.4-0.1c0,0,0,0,0,0c0,0.1,0,0.2-0.1,0.3c0,0,0,0,0,0
			C10.8,24.1,10.7,24.1,10.6,24C10.6,24,10.6,24,10.6,24z M10.7,24.5C10.7,24.5,10.7,24.5,10.7,24.5c0.1-0.1,0.2-0.1,0.4-0.2
			c0,0,0,0,0,0c0,0.1,0,0.2-0.1,0.3c0,0,0,0,0,0C10.9,24.6,10.8,24.6,10.7,24.5z M11.4,25.1C11.3,25.2,11.3,25.2,11.4,25.1
			c-0.1,0-0.2-0.1-0.3-0.1c0,0,0,0,0,0c0.1-0.1,0.2-0.1,0.4-0.1c0,0,0,0,0,0C11.4,25,11.4,25.1,11.4,25.1z M11.3,24.4
			C11.3,24.4,11.3,24.4,11.3,24.4c0.1-0.1,0.2-0.1,0.4-0.2c0,0,0,0,0,0c0,0.1,0,0.2-0.1,0.3c0,0,0,0,0,0
			C11.5,24.5,11.4,24.4,11.3,24.4z M11.9,25.4C11.9,25.4,11.9,25.5,11.9,25.4c-0.1,0-0.2-0.1-0.3-0.1c0,0,0,0,0,0
			c0.1-0.1,0.2-0.1,0.4-0.1c0,0,0,0,0,0C11.9,25.2,11.9,25.3,11.9,25.4z M12,24.9C12,24.9,12,24.9,12,24.9c-0.1,0-0.2-0.1-0.3-0.1
			c0,0,0,0,0,0c0.1-0.1,0.2-0.1,0.4-0.1c0,0,0,0,0,0C12.1,24.7,12,24.8,12,24.9z M12.6,25.1c0,0.1,0,0.2-0.1,0.3c0,0,0,0,0,0
			c-0.1,0-0.2-0.1-0.3-0.1c0,0,0,0,0,0C12.3,25.2,12.4,25.1,12.6,25.1C12.5,25.1,12.6,25.1,12.6,25.1z M12.6,24.9
			c-0.1,0-0.2-0.1-0.3-0.1c0,0,0,0,0,0c0.1-0.1,0.2-0.1,0.4-0.1c0,0,0,0,0,0C12.7,24.7,12.6,24.8,12.6,24.9
			C12.6,24.9,12.6,24.9,12.6,24.9z M13.1,25.5c0,0.1,0,0.2-0.1,0.3c0,0,0,0,0,0c-0.1,0-0.2-0.1-0.3-0.1c0,0,0,0,0,0
			C12.8,25.6,12.9,25.5,13.1,25.5C13,25.5,13.1,25.5,13.1,25.5z M13.2,25c0,0.1,0,0.2-0.1,0.3c0,0,0,0,0,0c-0.1,0-0.2-0.1-0.3-0.1
			c0,0,0,0,0,0C12.9,25,13,25,13.2,25C13.2,25,13.2,25,13.2,25z M13.3,24.7C13.2,24.7,13.2,24.7,13.3,24.7c-0.1,0-0.2-0.1-0.3-0.1
			c0,0,0,0,0,0c0.1-0.1,0.2-0.1,0.4-0.1c0,0,0,0,0,0C13.3,24.5,13.3,24.6,13.3,24.7z M13.6,25.6C13.6,25.6,13.6,25.6,13.6,25.6
			c-0.1,0-0.2-0.1-0.3-0.1c0,0,0,0,0,0c0.1-0.1,0.2-0.1,0.4-0.1c0,0,0,0,0,0C13.7,25.4,13.6,25.5,13.6,25.6z M13.7,25.1
			C13.7,25.1,13.7,25.1,13.7,25.1c-0.1,0-0.2-0.1-0.3-0.1c0,0,0,0,0,0c0.1-0.1,0.2-0.1,0.4-0.1c0,0,0,0,0,0
			C13.8,24.9,13.8,25,13.7,25.1z M13.8,24.5c-0.1,0-0.2-0.1-0.3-0.1c0,0,0,0,0,0c0.1-0.1,0.2-0.1,0.4-0.1c0,0,0,0,0,0
			C13.9,24.4,13.9,24.4,13.8,24.5C13.9,24.5,13.9,24.6,13.8,24.5z M14.3,25.2c0,0.1,0,0.2-0.1,0.3c0,0,0,0,0,0
			c-0.1,0-0.2-0.1-0.3-0.1c0,0,0,0,0,0C14,25.3,14.2,25.2,14.3,25.2C14.3,25.2,14.3,25.2,14.3,25.2z M14.4,24.7c0,0.1,0,0.2-0.1,0.3
			c0,0,0,0,0,0c-0.1,0-0.2-0.1-0.3-0.1c0,0,0,0,0,0C14.2,24.7,14.3,24.7,14.4,24.7C14.4,24.7,14.4,24.7,14.4,24.7z M14.5,24.4
			c-0.1,0-0.2-0.1-0.3-0.1c0,0,0,0,0,0c0.1-0.1,0.2-0.1,0.4-0.1c0,0,0,0,0,0C14.5,24.2,14.5,24.3,14.5,24.4
			C14.5,24.4,14.5,24.5,14.5,24.4z M14.9,25.2c0,0.1,0,0.2-0.1,0.3c0,0,0,0,0,0c-0.1,0-0.2-0.1-0.3-0.1c0,0,0,0,0,0
			C14.7,25.2,14.8,25.2,14.9,25.2C14.9,25.1,15,25.1,14.9,25.2z M15.1,24.6c0,0.1,0,0.2-0.1,0.3c0,0,0,0,0,0c-0.1,0-0.2-0.1-0.3-0.1
			c0,0,0,0,0,0C14.8,24.7,14.9,24.6,15.1,24.6C15.1,24.6,15.1,24.6,15.1,24.6z M15.1,24.4C15.1,24.4,15.1,24.4,15.1,24.4
			c-0.1,0-0.2-0.1-0.3-0.1c0,0,0,0,0,0c0.1-0.1,0.2-0.1,0.4-0.1c0,0,0,0,0,0C15.2,24.2,15.1,24.3,15.1,24.4z M15.6,25.2
			c0,0.1,0,0.2-0.1,0.3c0,0,0,0,0,0c-0.1,0-0.2-0.1-0.3-0.1c0,0,0,0,0,0C15.3,25.2,15.4,25.2,15.6,25.2
			C15.6,25.2,15.6,25.2,15.6,25.2z M15.7,24.7c0,0.1,0,0.2-0.1,0.3c0,0,0,0,0,0c-0.1,0-0.2-0.1-0.3-0.1c0,0,0,0,0,0
			C15.4,24.7,15.5,24.6,15.7,24.7C15.7,24.6,15.7,24.6,15.7,24.7z M15.8,24.1c0,0.1,0,0.2-0.1,0.3c0,0,0,0,0,0
			c-0.1,0-0.2-0.1-0.3-0.1c0,0,0,0,0,0C15.5,24.2,15.6,24.1,15.8,24.1C15.8,24.1,15.8,24.1,15.8,24.1z M16.2,25
			C16.2,25,16.2,25.1,16.2,25c-0.1,0-0.2-0.1-0.3-0.1c0,0,0,0,0,0c0.1-0.1,0.2-0.1,0.4-0.1c0,0,0,0,0,0C16.3,24.8,16.2,24.9,16.2,25
			z M16.4,24.2c0,0.1,0,0.2-0.1,0.3c0,0,0,0,0,0c-0.1,0-0.2-0.1-0.3-0.1c0,0,0,0,0,0C16.1,24.3,16.2,24.2,16.4,24.2
			C16.4,24.2,16.4,24.2,16.4,24.2z M17,24.4c0,0.1,0,0.2-0.1,0.3c0,0,0,0,0,0c-0.1,0-0.2-0.1-0.3-0.1c0,0,0,0,0,0
			C16.7,24.5,16.8,24.4,17,24.4C17,24.4,17,24.4,17,24.4z"/>
	</g>
</g>
</svg>
