<?xml version="1.0" encoding="utf-8"?>
<!-- Generator: Adobe Illustrator 24.1.0, SVG Export Plug-In . SVG Version: 6.00 Build 0)  -->
<svg version="1.1" id="Layer_1" xmlns="http://www.w3.org/2000/svg" xmlns:xlink="http://www.w3.org/1999/xlink" x="0px" y="0px"
	 viewBox="0 0 581.1 90.71" style="enable-background:new 0 0 581.1 90.71;" xml:space="preserve">
<linearGradient id="SVGID_1_" gradientUnits="userSpaceOnUse" x1="-0.374" y1="128.8241" x2="0.3331" y2="128.117">
	<stop  offset="0" style="stop-color:#249E2E"/>
	<stop  offset="0.9831" style="stop-color:#1C371D"/>
</linearGradient>
<path class="st0"d="M199.61,76.24c15.92,0,30.02-10.71,30.02-28.89c0-18.18-14.09-28.89-30.02-28.89c-15.92,0-30.02,10.71-30.02,28.89
	C169.6,65.53,183.69,76.24,199.61,76.24L199.61,76.24z M96.92,75.12h11.62l-26.7-55.52H70.71L46.05,75.12h10.29l5.35-12.54h29.45
	L96.92,75.12z M384.92,19.59h-42.13v55.52h42.98v-8.88h-33.12V51.72h28.18v-8.88h-28.18V28.47h32.27V19.59z M237.24,69.62
	c2.26,1.83,9.02,6.62,20.86,6.62c11.98,0,21.7-6.48,21.7-16.63c0-21.14-30.58-14.37-30.58-25.93c0-3.24,2.68-5.92,9.72-5.92
	c8.46,0,13.95,3.8,16.06,5.5l4.09-8.17c-2.54-2.4-10.29-6.62-20.15-6.62c-14.8,0-20.86,8.31-20.86,16.49
	c0,19.16,30.58,13.67,30.58,25.08c0,4.79-4.79,6.9-10.29,6.9c-8.31,0-14.94-3.66-17.76-5.78L237.24,69.62z M140.57,28.33
	c8.31,0,12.96,4.51,15.64,6.91l6.9-6.76c-2.25-2.54-8.88-10.01-22.69-10.01c-15.92,0-30.02,10.71-30.02,28.89
	c0,18.18,13.95,28.89,29.88,28.89c12.26,0,20.57-6.62,23.25-9.02l-5.5-7.75c-4.37,3.67-11.27,6.91-17.61,6.91
	c-10.99,0-19.31-8.31-19.31-19.03C121.12,36.64,129.44,28.33,140.57,28.33L140.57,28.33z M199.61,66.38
	c-10.99,0-19.3-8.31-19.3-19.03c0-10.71,8.31-19.02,19.3-19.02c10.99,0,19.31,8.31,19.31,19.02
	C218.92,58.06,210.6,66.38,199.61,66.38L199.61,66.38z M304.74,28.47v46.64h9.86V28.47h19.45v-8.88h-48.2v8.88H304.74z M9.79,19.59
	h-9.86v55.52h39.36v-8.88H9.79V19.59z M75.93,29.32L87.2,53.98H65.36L75.93,29.32z"/>
<path class="st1" d="M540.9,50.36c-4.23-1.42-6.04-1.21-9.29,0c-3,1.11-4.64,0.38-5.8,0.11c0,0-0.16,3.47,3.86,3.06
	c1.71-0.18,4.63-1.02,6.97-0.33c4.54,1.34,3.4,3.41,9.33,7.42c1.83,0.97,3.6-1.03,4.93-0.5c0.7,0.28,1.17,2.72,2,2.89
	c0.84,0.18,2.19-1.87,3.52-1.53c0.79,0.2,1.1,2.68,1.94,2.85c0.83,0.18,2.24-1.78,3.5-1.44c0.95,0.25,1.07,2.57,2.15,2.82
	c0.84,0.19,2.18-1.82,3.24-1.57c0.86,0.2,1,1.28,2.38,1.94c1.28,0.61,2.46,0.56,2.94-0.15c0.62-0.92-0.12-1.87-1.83-2.66
	c-2.77-1.28-7.43-2.56-12.02-3.89c-4.6-1.33-8.6-3-8.88-5.32c-0.12-0.98,0.36-0.87,0.56-0.8c-1.77-1.31-2.14-2.55-2.05-3.24l0,0
	c0,0,0,0,0,0h0l0,0c-0.17,0.04-0.33,0.1-0.51,0.15C546.6,50.49,544.47,51.56,540.9,50.36z"/>
<path class="st2" d="M578.55,63.38c-1.2-0.76-2.25-0.85-3.34-1.18c-1.48-0.45-1.96-2.27-2.51-2.48c-1.11-0.43-2.13,1.27-2.8,1.04
	c-0.67-0.21-0.95-2.44-1.49-2.65c-1.07-0.4-2.22,1.3-2.9,1.08c-0.67-0.21-1.03-2.41-1.58-2.61c-1.12-0.41-2.26,1.36-2.93,1.14
	c-0.67-0.22-0.86-2.5-1.41-2.71c-1.19-0.45-2.28,1.36-3.33,1.19c-0.67-0.1-2.13-0.35-4.05-1.64c-0.55-0.37-1.69-1.29-1.78-1.32
	c-0.19-0.07-0.69-0.2-0.57,0.8c0.28,2.32,4.28,3.99,8.88,5.32c4.59,1.32,9.25,2.61,12.02,3.89c1.72,0.79,2.45,1.74,1.83,2.66
	c-0.48,0.71-1.66,0.76-2.94,0.15c-1.37-0.66-1.51-1.74-2.38-1.94c-1.06-0.25-2.4,1.76-3.24,1.57c-1.08-0.25-1.2-2.56-2.15-2.82
	c-1.26-0.34-2.67,1.62-3.5,1.44c-0.84-0.17-1.15-2.65-1.94-2.85c-1.33-0.34-2.68,1.71-3.52,1.53c-0.84-0.17-1.3-2.61-2-2.89
	c-1.33-0.54-3.1,1.47-4.93,0.5c-5.94-4.01-4.8-6.07-9.33-7.42c-2.34-0.69-5.26,0.15-6.97,0.33c-4.02,0.42-3.86-3.06-3.86-3.06
	c1.17,0.27,2.8,1.01,5.8-0.11c3.25-1.21,5.06-1.42,9.29,0c3.57,1.2,5.7,0.13,6.94-0.19c0.61-0.16,1.08-0.5,2.24,0.24
	c1.15,0.74,2.26,1.55,2.83,1.27c0.88-0.43,0.56-2.77,2.07-3.27c0.69-0.23,2.57,1.65,3.39,1.34c0.82-0.32,0.57-2.77,2.07-3.27
	c0.69-0.23,2.58,1.66,3.4,1.34c0.83-0.32,0.57-2.78,2.08-3.28c0.69-0.23,2.58,1.66,3.4,1.35c0.82-0.32,0.57-2.78,2.08-3.28
	c0.69-0.22,2.58,1.66,3.4,1.35v0c0.82-0.33,0.71-0.95,1.37-2.62c0.13-0.33,0.37-0.65,0.71-0.93c0.92-0.75,2.31-2.36,1.49-4.17
	c-0.75-1.63-2.28-1.58-5.65-0.89c-2.84,0.59-20.44,4.46-20.44,4.46c-2.75-5.08-4.61-1.73-8.69-2.22c-2.58-0.31-6.76-2.94-13.36,3.15
	c-3.55-1.01-6.69-0.11-9.03,1.2c-3.96-1.62-11.52-5.49-25.88-5.49c-4.06,0-13.75,0.8-29.17,4.86c-3.95,1.04-7.55,0.82-8.43-1.53
	c-0.91-2.45,2.25-5.02,8.22-7.88c14.8-7.09,24.67-5.42,44.57-15.95c10.66-5.64,11.36-12.26,11.35-13.87c0-1.1-1.12-1.47-1.76-0.57
	c-3.59,5.01-4.51,4.59-5.63,3.48c-1.49-1.49-2.5,0.88-4.1,2.07c-1.22,0.91-1.46-0.19-2.45-0.82c-1.68-1.09-3.1,2.13-4.55,2.77
	c-1.67,0.75-1.98-0.09-2.55-0.68c-0.4-0.42-1.13-0.41-1.65,0.09c-3.39,3.22-3.89,2.86-4.9,1.78c-0.75-0.8-1.16-1.35-3.36,0.87
	c-1.27,1.29-3.39,2.81-4.03,1.2c-0.64-1.61-1.2-2.54-4.31,0.3c-1.84,1.68-3.1,1.82-3.66,1.02c-0.56-0.8-0.47-2.98-3.39-0.69
	c-2.61,2.06-3.92,3.3-4.79,1.31c-0.83-1.92-2.76-0.3-4.21,1.09c-0.76,0.73-2.04,2.47-3.06,0.7c-1.02-1.75-2.65,0.06-4.75,2.27
	c-1.18,1.24-1.97,0.7-3.14-0.13c-1.34-0.96-2.76,2.48-4.72,4.54c-0.37,0.34-0.9,0.59-2.07-0.23c-1.52-1.05-3.93,4.29-4.61,5.6
	c-1.12,2.11-2.35-0.55-3.66,1.36c-3.04,4.45-6.29,9.39-7.22,18.14c-1.11,10.47,2.78,19,6.71,22.13c0,0-0.48,1.17-1.03,2.65
	c-1.1,2.95-1.55,6.78-0.14,9.47c1.37,2.59,4.57,6.91,5.75,2.83c0.58-1.98,1.12-1.87,3.03-0.53c2.88,2.03,2.17-1.67,2.75-2.77
	c0.41-0.77,0.91-1.07,3.28,0.5c1.37,0.89,1.8-0.32,2.21-2.01c1.25-5.22-1.21-6.5-3.65-6.99c-1.77-0.36-3.64-0.06-3.64-0.06
	c3.88-5.92,4.36-9.15,0-12.14c0.65-0.33,1.18-0.15,1.74,0.09c1.07,0.45,1.97,1.28,2.54,2.28c0.6,1.06,1.59,3.43-0.41,7.64
	c0.84,0,4.05,0.2,5.51,3.5c1.9,0.62,14.21,1.59,19.59,0.72c1.95-0.32,2.84-2.08,4.79-3.9c2.13-1.98,4.6-4.13,6.81-2.52
	c-3.76,1.54-6.41,4.46-6.41,8.17c0,2.78,1.15,3.9,3.14,5.55c1.8,1.5,2.36,3.87,3.02,5.72c0.84,2.35,2.61,2.42,3,0.19
	c0.54-3.08,1.47-2.51,2.67-1.2c1.45,1.6,2.58,1.35,2.58-0.95c0-2.18,0.66-3.25,3.09-0.74c0.99,1.02,2.18,0.98,2.16-1.24
	c-0.02-2.71,1.2-2.45,2.72-1.29c0.53,0.41,0.9,0.7,1.18,0.68c1.2-0.06,1.99-2.39,1.06-4.23c-0.46-0.92-1.13-2.29-7.34-3.57
	c-2.03-0.42-1.69-1.83-1.69-1.83c15.16,0.74,28.01-1.17,36.46-6.31c10.38,2.5,25.58,2.74,30.56,2.68c4.98-0.06,8.79-0.29,11.92-1.78
	C580.56,66.74,580.07,64.34,578.55,63.38z M547.18,39.79c0.3-0.76,0.92-1.28,1.57-1.28c1.16,0,1.71,1.26,1.71,1.65l-2.79,0.62
	C546.88,40.94,546.9,40.51,547.18,39.79z M539.99,39.57c1.94,0,3.13,1.49,3.35,2.16c0,0-2.91,0.64-4.18,0.91
	c-0.83,0.18-1.37-0.18-1.45-0.83C537.59,41.09,538.37,39.56,539.99,39.57z M459.61,21.78c1.33-0.64,2.74-1.1,4.2-1.38
	c0.29-0.05,0.48,0.1,0.41,0.33c-0.24,0.95-0.46,1.92-0.66,2.92c-0.05,0.25-0.28,0.36-0.51,0.25c-1.08-0.53-2.22-1.09-3.43-1.66
	C459.36,22.12,459.34,21.91,459.61,21.78z M453.25,24.77c1.33-0.64,2.73-1.1,4.2-1.38c0.29-0.05,0.47,0.11,0.42,0.34
	c-0.24,0.95-0.46,1.92-0.67,2.92c-0.05,0.25-0.28,0.35-0.51,0.24c-1.08-0.53-2.22-1.09-3.43-1.66
	C452.99,25.11,452.98,24.9,453.25,24.77z M455.98,31.37c0.29-0.05,0.48,0.1,0.42,0.34c-0.23,0.95-0.46,1.92-0.67,2.92
	c-0.05,0.24-0.27,0.35-0.5,0.24c-1.08-0.53-2.22-1.08-3.43-1.66c-0.26-0.12-0.27-0.33-0.01-0.46
	C453.11,32.1,454.52,31.64,455.98,31.37z M453.32,36.91c-0.24,0.95-0.46,1.92-0.67,2.92c-0.05,0.24-0.28,0.36-0.51,0.24
	c-1.08-0.52-2.22-1.08-3.43-1.66c-0.26-0.12-0.27-0.33,0-0.46c1.33-0.64,2.75-1.1,4.2-1.37C453.19,36.53,453.38,36.67,453.32,36.91z
	 M447.55,28.6c1.32-0.64,2.74-1.1,4.2-1.37c0.29-0.05,0.47,0.1,0.41,0.33c-0.23,0.95-0.46,1.92-0.66,2.92
	c-0.05,0.24-0.28,0.36-0.52,0.24c-1.08-0.53-2.22-1.08-3.43-1.66C447.29,28.94,447.29,28.73,447.55,28.6z M443.19,33.62
	c1.33-0.65,2.74-1.1,4.2-1.37c0.29-0.06,0.48,0.1,0.42,0.33c-0.24,0.96-0.46,1.93-0.67,2.92c-0.05,0.24-0.28,0.36-0.51,0.24
	c-1.07-0.53-2.21-1.09-3.43-1.67C442.93,33.95,442.93,33.74,443.19,33.62z M441.54,39.38c1.33-0.64,2.75-1.1,4.21-1.37
	c0.29-0.06,0.48,0.1,0.41,0.33c-0.24,0.95-0.46,1.92-0.67,2.92c-0.06,0.25-0.28,0.36-0.51,0.25c-1.08-0.53-2.21-1.09-3.44-1.66
	C441.29,39.72,441.28,39.51,441.54,39.38z M442.28,45.66c-0.26-0.13-0.27-0.34,0-0.47c1.33-0.64,2.74-1.11,4.2-1.38
	c0.29-0.05,0.48,0.1,0.42,0.33c-0.24,0.95-0.46,1.93-0.67,2.93c-0.05,0.25-0.28,0.36-0.51,0.24
	C444.64,46.79,443.49,46.23,442.28,45.66z M449.74,52.68c-0.05,0.24-0.28,0.35-0.51,0.24c-1.08-0.53-2.22-1.09-3.44-1.66
	c-0.26-0.12-0.27-0.34-0.01-0.46c1.33-0.64,2.74-1.1,4.2-1.37c0.29-0.06,0.48,0.1,0.43,0.33C450.17,50.71,449.95,51.69,449.74,52.68
	z M449.38,44.09c-0.26-0.12-0.26-0.33,0-0.46c1.33-0.65,2.74-1.11,4.2-1.38c0.28-0.05,0.47,0.1,0.42,0.33
	c-0.24,0.95-0.46,1.93-0.67,2.92c-0.05,0.24-0.28,0.35-0.51,0.24C451.74,45.23,450.6,44.67,449.38,44.09z M455.98,55.9
	c-0.05,0.25-0.28,0.36-0.51,0.25c-1.07-0.53-2.21-1.09-3.43-1.66c-0.26-0.13-0.27-0.34-0.01-0.47c1.33-0.63,2.74-1.1,4.2-1.37
	c0.29-0.05,0.48,0.1,0.42,0.33C456.41,53.93,456.19,54.9,455.98,55.9z M457.36,49.78c-0.05,0.25-0.28,0.35-0.51,0.25
	c-1.08-0.54-2.22-1.09-3.43-1.67c-0.26-0.12-0.26-0.33,0-0.47c1.33-0.64,2.74-1.1,4.2-1.37c0.28-0.06,0.47,0.1,0.42,0.33
	C457.78,47.81,457.56,48.78,457.36,49.78z M463.56,52.79c-0.24,0.95-0.46,1.93-0.67,2.93c-0.05,0.24-0.28,0.35-0.51,0.24
	c-1.08-0.53-2.22-1.08-3.43-1.66c-0.26-0.12-0.27-0.33-0.01-0.47c1.33-0.64,2.74-1.1,4.19-1.37
	C463.43,52.4,463.62,52.56,463.56,52.79z M463.85,49.52c-1.08-0.53-2.22-1.09-3.44-1.65c-0.26-0.12-0.27-0.34,0-0.46
	c1.33-0.64,2.75-1.1,4.2-1.38c0.29-0.05,0.48,0.1,0.42,0.34c-0.24,0.95-0.46,1.92-0.67,2.92C464.31,49.52,464.08,49.63,463.85,49.52
	z M469.25,57.36c-0.23,0.95-0.45,1.92-0.66,2.91c-0.05,0.24-0.28,0.36-0.51,0.24c-1.07-0.53-2.21-1.08-3.43-1.67
	c-0.26-0.12-0.27-0.33-0.01-0.46c1.33-0.64,2.74-1.1,4.2-1.37C469.12,56.97,469.32,57.13,469.25,57.36z M470.63,51.05
	c-0.24,0.95-0.46,1.92-0.67,2.92c-0.05,0.24-0.28,0.35-0.51,0.24c-1.07-0.52-2.21-1.09-3.43-1.66c-0.26-0.12-0.27-0.33-0.01-0.46
	c1.32-0.64,2.74-1.1,4.2-1.38C470.5,50.66,470.7,50.81,470.63,51.05z M471.47,47.29c-0.05,0.25-0.28,0.36-0.5,0.24
	c-1.08-0.52-2.22-1.08-3.44-1.66c-0.26-0.11-0.27-0.33-0.01-0.46c1.33-0.64,2.74-1.1,4.2-1.38c0.29-0.05,0.47,0.1,0.42,0.34
	C471.91,45.33,471.68,46.3,471.47,47.29z M475.78,58.18c-0.05,0.24-0.28,0.35-0.51,0.24c-1.08-0.53-2.21-1.09-3.43-1.66
	c-0.26-0.12-0.27-0.33-0.01-0.46c1.33-0.64,2.74-1.1,4.2-1.37c0.29-0.05,0.48,0.1,0.42,0.34C476.21,56.2,475.99,57.18,475.78,58.18z
	 M477.14,52.06c-0.05,0.24-0.27,0.35-0.51,0.24c-1.08-0.53-2.22-1.09-3.43-1.67c-0.26-0.12-0.27-0.33-0.01-0.46
	c1.33-0.65,2.74-1.11,4.19-1.37c0.29-0.05,0.48,0.1,0.42,0.34C477.58,50.09,477.36,51.06,477.14,52.06z M478.1,45.9
	c-1.08-0.53-2.22-1.09-3.43-1.66c-0.26-0.12-0.28-0.33-0.01-0.46c1.33-0.64,2.74-1.1,4.2-1.37c0.29-0.05,0.47,0.1,0.42,0.34
	c-0.23,0.94-0.46,1.92-0.67,2.92C478.56,45.9,478.32,46.01,478.1,45.9z M483.78,53.71c-0.24,0.95-0.46,1.92-0.67,2.92
	c-0.05,0.25-0.27,0.35-0.5,0.24c-1.08-0.53-2.21-1.09-3.44-1.66c-0.26-0.13-0.27-0.33-0.01-0.46c1.34-0.65,2.74-1.11,4.2-1.38
	C483.65,53.33,483.84,53.48,483.78,53.71z M485.11,47.6c-0.24,0.94-0.46,1.92-0.66,2.92c-0.05,0.25-0.28,0.35-0.51,0.24
	c-1.08-0.52-2.21-1.08-3.43-1.66c-0.27-0.13-0.27-0.34-0.01-0.46c1.33-0.65,2.74-1.11,4.2-1.38
	C484.98,47.22,485.17,47.37,485.11,47.6z M485.31,44.69c-1.08-0.52-2.22-1.09-3.44-1.66c-0.26-0.12-0.26-0.34,0-0.47
	c1.33-0.64,2.74-1.1,4.2-1.37c0.28-0.05,0.47,0.1,0.41,0.33c-0.24,0.95-0.46,1.92-0.67,2.92C485.77,44.69,485.54,44.8,485.31,44.69z
	 M490.88,52.98c-0.23,0.95-0.46,1.92-0.66,2.92c-0.05,0.24-0.28,0.35-0.51,0.24c-1.08-0.53-2.22-1.09-3.44-1.66
	c-0.26-0.12-0.27-0.34-0.01-0.46c1.33-0.64,2.73-1.11,4.2-1.38C490.75,52.59,490.94,52.74,490.88,52.98z M492.21,46.91
	c-0.23,0.96-0.46,1.92-0.66,2.92c-0.06,0.24-0.28,0.35-0.52,0.24c-1.07-0.53-2.22-1.08-3.43-1.66c-0.26-0.13-0.26-0.34-0.01-0.46
	c1.33-0.64,2.74-1.11,4.2-1.38C492.08,46.52,492.27,46.67,492.21,46.91z M492.9,43.86c-0.04,0.25-0.27,0.35-0.5,0.25
	c-1.08-0.53-2.22-1.09-3.44-1.66c-0.26-0.12-0.27-0.33-0.01-0.46c1.33-0.64,2.74-1.11,4.2-1.38c0.29-0.05,0.47,0.1,0.42,0.34
	C493.33,41.89,493.11,42.86,492.9,43.86z M497.92,53.25c-0.24,0.95-0.46,1.92-0.67,2.92c-0.05,0.25-0.28,0.35-0.51,0.25
	c-1.07-0.53-2.21-1.09-3.43-1.67c-0.26-0.12-0.27-0.34,0-0.46c1.33-0.64,2.74-1.1,4.19-1.37C497.79,52.86,497.98,53.01,497.92,53.25
	z M499.28,47.1c-0.23,0.95-0.46,1.92-0.67,2.92c-0.05,0.25-0.28,0.36-0.51,0.25c-1.07-0.53-2.22-1.09-3.43-1.67
	c-0.26-0.12-0.26-0.34,0-0.47c1.33-0.64,2.74-1.1,4.2-1.37C499.15,46.71,499.34,46.87,499.28,47.1z M500.65,41.09
	c-0.24,0.95-0.46,1.92-0.67,2.92c-0.05,0.25-0.27,0.36-0.51,0.25c-1.07-0.54-2.21-1.09-3.43-1.66c-0.27-0.12-0.27-0.34-0.01-0.46
	c1.33-0.64,2.74-1.11,4.2-1.38C500.52,40.7,500.71,40.86,500.65,41.09z M505.44,51.32c-0.05,0.24-0.27,0.34-0.51,0.24
	c-1.07-0.53-2.21-1.09-3.43-1.66c-0.26-0.12-0.26-0.34,0-0.46c1.33-0.64,2.74-1.11,4.19-1.38c0.29-0.05,0.48,0.11,0.42,0.33
	C505.87,49.34,505.65,50.33,505.44,51.32z M507.47,42.2c-0.23,0.95-0.46,1.93-0.66,2.93c-0.06,0.24-0.28,0.35-0.51,0.24
	c-1.08-0.53-2.22-1.09-3.44-1.66c-0.26-0.12-0.27-0.34,0-0.46c1.32-0.64,2.73-1.11,4.19-1.37C507.35,41.82,507.54,41.97,507.47,42.2
	z M513.98,44.47c-0.23,0.95-0.45,1.93-0.66,2.92c-0.05,0.24-0.29,0.35-0.51,0.24c-1.08-0.53-2.21-1.08-3.43-1.66
	c-0.26-0.12-0.27-0.34,0-0.46c1.33-0.64,2.74-1.1,4.2-1.37C513.86,44.09,514.04,44.24,513.98,44.47z"/>
</svg>
