<?xml version="1.0" encoding="utf-8"?>
<!-- Generator: Adobe Illustrator 24.1.0, SVG Export Plug-In . SVG Version: 6.00 Build 0)  -->
<svg version="1.1" id="Layer_1" xmlns="http://www.w3.org/2000/svg" xmlns:xlink="http://www.w3.org/1999/xlink" x="0px" y="0px"
	 viewBox="0 0 147.4 90.71" style="enable-background:new 0 0 147.4 90.71;" xml:space="preserve">
<style type="text/css">
	.Arched_x0020_Green{fill:url(#SVGID_1_);stroke:#FFFFFF;stroke-width:0.25;stroke-miterlimit:1;}
</style>
<linearGradient id="SVGID_1_" gradientUnits="userSpaceOnUse" x1="-0.374" y1="128.8241" x2="0.3331" y2="128.117">
	<stop  offset="0" style="stop-color:#249E2E"/>
	<stop  offset="0.9831" style="stop-color:#1C371D"/>
</linearGradient>
<g>
	<path class="st1" d="M145.83,63.38c-1.2-0.76-2.25-0.85-3.34-1.18c-1.48-0.45-1.96-2.27-2.51-2.48c-1.11-0.43-2.13,1.27-2.8,1.04
		c-0.67-0.21-0.95-2.44-1.49-2.65c-1.07-0.4-2.22,1.3-2.9,1.08c-0.67-0.21-1.03-2.41-1.58-2.61c-1.12-0.41-2.26,1.36-2.93,1.14
		c-0.67-0.22-0.86-2.5-1.41-2.71c-1.19-0.45-2.28,1.36-3.33,1.19c-0.67-0.1-2.13-0.35-4.05-1.64c-0.55-0.37-1.69-1.29-1.78-1.32
		c-0.19-0.07-0.69-0.2-0.57,0.8c0.28,2.32,4.28,3.99,8.88,5.32c4.59,1.32,9.25,2.61,12.02,3.89c1.72,0.79,2.45,1.74,1.83,2.66
		c-0.48,0.71-1.66,0.76-2.94,0.15c-1.37-0.66-1.51-1.74-2.38-1.94c-1.06-0.25-2.4,1.76-3.24,1.57c-1.08-0.25-1.2-2.56-2.15-2.82
		c-1.26-0.34-2.67,1.62-3.5,1.44c-0.84-0.17-1.15-2.65-1.94-2.85c-1.33-0.34-2.68,1.71-3.52,1.53c-0.84-0.17-1.3-2.61-2-2.89
		c-1.33-0.54-3.1,1.47-4.93,0.5c-5.94-4.01-4.8-6.07-9.33-7.42c-2.34-0.69-5.26,0.15-6.97,0.33c-4.02,0.42-3.86-3.06-3.86-3.06
		c1.17,0.27,2.8,1.01,5.8-0.11c3.25-1.21,5.06-1.42,9.29,0c3.57,1.2,5.7,0.13,6.94-0.19c0.61-0.16,1.08-0.5,2.24,0.24
		c1.15,0.74,2.26,1.55,2.83,1.27c0.88-0.43,0.56-2.77,2.07-3.27c0.69-0.23,2.57,1.65,3.39,1.34c0.82-0.32,0.57-2.77,2.07-3.27
		c0.69-0.23,2.58,1.66,3.4,1.34c0.83-0.32,0.57-2.78,2.08-3.28c0.69-0.23,2.58,1.66,3.4,1.35c0.82-0.32,0.57-2.78,2.08-3.28
		c0.69-0.22,2.58,1.66,3.4,1.35v0c0.82-0.33,0.71-0.95,1.37-2.62c0.13-0.33,0.37-0.65,0.71-0.93c0.92-0.75,2.31-2.36,1.49-4.17
		c-0.75-1.63-2.28-1.58-5.65-0.89c-2.83,0.59-20.44,4.46-20.44,4.46c-2.75-5.08-4.61-1.73-8.69-2.22
		c-2.58-0.31-6.76-2.94-13.36,3.15c-3.55-1.01-6.69-0.11-9.03,1.2c-3.96-1.62-11.52-5.49-25.88-5.49c-4.06,0-13.75,0.8-29.17,4.86
		c-3.95,1.04-7.55,0.82-8.43-1.53c-0.91-2.45,2.25-5.02,8.22-7.88c14.8-7.09,24.67-5.42,44.57-15.95
		C88.45,10.31,89.15,3.69,89.14,2.09c0-1.1-1.12-1.47-1.76-0.57C83.79,6.53,82.87,6.11,81.75,5c-1.49-1.49-2.5,0.88-4.1,2.07
		c-1.22,0.91-1.46-0.19-2.45-0.82c-1.68-1.09-3.1,2.13-4.55,2.77c-1.67,0.75-1.98-0.09-2.55-0.68c-0.4-0.42-1.13-0.41-1.65,0.09
		c-3.39,3.22-3.89,2.86-4.9,1.78c-0.75-0.8-1.16-1.35-3.36,0.87c-1.27,1.29-3.39,2.81-4.03,1.2c-0.64-1.61-1.2-2.54-4.31,0.3
		c-1.84,1.68-3.1,1.82-3.66,1.02c-0.56-0.8-0.47-2.98-3.39-0.69c-2.61,2.06-3.92,3.3-4.79,1.31c-0.83-1.92-2.76-0.3-4.21,1.09
		c-0.76,0.73-2.04,2.47-3.06,0.7c-1.02-1.75-2.65,0.06-4.75,2.27c-1.18,1.24-1.97,0.7-3.14-0.13c-1.34-0.96-2.76,2.48-4.72,4.54
		c-0.37,0.34-0.9,0.59-2.07-0.23c-1.52-1.05-3.93,4.29-4.61,5.6c-1.12,2.11-2.35-0.55-3.66,1.36c-3.04,4.45-6.29,9.39-7.22,18.14
		c-1.11,10.47,2.78,19,6.71,22.13c0,0-0.48,1.17-1.03,2.65c-1.1,2.95-1.55,6.78-0.14,9.47c1.37,2.59,4.57,6.91,5.75,2.83
		c0.58-1.98,1.12-1.87,3.03-0.53c2.88,2.03,2.17-1.67,2.75-2.77c0.41-0.77,0.91-1.07,3.28,0.5c1.37,0.89,1.8-0.32,2.21-2.01
		c1.25-5.22-1.21-6.5-3.65-6.99c-1.77-0.36-3.64-0.06-3.64-0.06c3.88-5.92,4.36-9.15,0-12.14c0.65-0.33,1.18-0.15,1.74,0.09
		c1.07,0.45,1.97,1.28,2.54,2.28c0.6,1.06,1.59,3.43-0.41,7.64c0.84,0,4.05,0.2,5.51,3.5c1.9,0.62,14.21,1.59,19.59,0.72
		c1.95-0.32,2.84-2.08,4.79-3.9c2.13-1.98,4.6-4.13,6.81-2.52c-3.76,1.54-6.41,4.46-6.41,8.17c0,2.78,1.15,3.9,3.14,5.55
		c1.8,1.5,2.36,3.87,3.02,5.72c0.84,2.35,2.61,2.42,3,0.19c0.54-3.08,1.47-2.51,2.67-1.2c1.45,1.6,2.58,1.35,2.58-0.95
		c0-2.18,0.66-3.25,3.09-0.74c0.99,1.02,2.18,0.98,2.16-1.24c-0.02-2.71,1.2-2.45,2.72-1.29c0.53,0.41,0.9,0.7,1.18,0.68
		c1.2-0.06,1.99-2.39,1.06-4.23c-0.46-0.92-1.13-2.29-7.34-3.57c-2.03-0.42-1.69-1.83-1.69-1.83c15.16,0.74,28.01-1.17,36.46-6.31
		c10.38,2.5,25.58,2.74,30.56,2.68c4.98-0.06,8.79-0.29,11.92-1.78C147.84,66.74,147.35,64.34,145.83,63.38z M114.45,39.79
		c0.3-0.76,0.92-1.28,1.57-1.28c1.16,0,1.71,1.26,1.71,1.65l-2.79,0.62C114.16,40.94,114.18,40.51,114.45,39.79z M107.26,39.57
		c1.94,0,3.13,1.49,3.35,2.16c0,0-2.91,0.64-4.18,0.91c-0.83,0.18-1.37-0.18-1.45-0.83C104.87,41.09,105.65,39.56,107.26,39.57z
		 M26.89,21.78c1.33-0.64,2.74-1.1,4.2-1.38c0.29-0.05,0.48,0.1,0.41,0.33c-0.24,0.95-0.46,1.92-0.66,2.92
		c-0.05,0.25-0.28,0.36-0.51,0.25c-1.08-0.53-2.22-1.09-3.43-1.66C26.63,22.12,26.62,21.91,26.89,21.78z M20.53,24.77
		c1.33-0.64,2.73-1.1,4.2-1.38c0.29-0.05,0.47,0.11,0.42,0.34c-0.24,0.95-0.46,1.92-0.67,2.92c-0.05,0.25-0.28,0.35-0.51,0.24
		c-1.08-0.53-2.22-1.09-3.43-1.66C20.27,25.11,20.26,24.9,20.53,24.77z M23.26,31.37c0.29-0.05,0.48,0.1,0.42,0.34
		c-0.23,0.95-0.46,1.92-0.67,2.92c-0.05,0.24-0.27,0.35-0.5,0.24c-1.08-0.53-2.22-1.08-3.43-1.66c-0.26-0.12-0.27-0.33-0.01-0.46
		C20.39,32.1,21.8,31.64,23.26,31.37z M20.6,36.91c-0.24,0.95-0.46,1.92-0.67,2.92c-0.05,0.24-0.28,0.36-0.51,0.24
		c-1.08-0.52-2.22-1.08-3.43-1.66c-0.26-0.12-0.27-0.33,0-0.46c1.33-0.64,2.75-1.1,4.2-1.37C20.46,36.53,20.66,36.67,20.6,36.91z
		 M14.83,28.6c1.32-0.64,2.74-1.1,4.2-1.37c0.29-0.05,0.47,0.1,0.41,0.33c-0.23,0.95-0.46,1.92-0.66,2.92
		c-0.05,0.24-0.28,0.36-0.52,0.24c-1.08-0.53-2.22-1.08-3.43-1.66C14.57,28.94,14.57,28.73,14.83,28.6z M10.46,33.62
		c1.33-0.65,2.74-1.1,4.2-1.37c0.29-0.06,0.48,0.1,0.42,0.33c-0.24,0.96-0.46,1.93-0.67,2.92c-0.05,0.24-0.28,0.36-0.51,0.24
		c-1.07-0.53-2.21-1.09-3.43-1.67C10.21,33.95,10.2,33.74,10.46,33.62z M8.82,39.38c1.33-0.64,2.75-1.1,4.21-1.37
		c0.29-0.06,0.48,0.1,0.41,0.33c-0.24,0.95-0.46,1.92-0.67,2.92c-0.06,0.25-0.28,0.36-0.51,0.25c-1.08-0.53-2.21-1.09-3.44-1.66
		C8.56,39.72,8.56,39.51,8.82,39.38z M9.56,45.66c-0.26-0.13-0.27-0.34,0-0.47c1.33-0.64,2.74-1.11,4.2-1.38
		c0.29-0.05,0.48,0.1,0.42,0.33c-0.24,0.95-0.46,1.93-0.67,2.93c-0.05,0.25-0.28,0.36-0.51,0.24C11.92,46.79,10.77,46.23,9.56,45.66
		z M17.02,52.68c-0.05,0.24-0.28,0.35-0.51,0.24c-1.08-0.53-2.22-1.09-3.44-1.66c-0.26-0.12-0.27-0.34-0.01-0.46
		c1.33-0.64,2.74-1.1,4.2-1.37c0.29-0.06,0.48,0.1,0.43,0.33C17.45,50.71,17.23,51.69,17.02,52.68z M16.66,44.09
		c-0.26-0.12-0.26-0.33,0-0.46c1.33-0.65,2.74-1.11,4.2-1.38c0.28-0.05,0.47,0.1,0.42,0.33c-0.24,0.95-0.46,1.93-0.67,2.92
		c-0.05,0.24-0.28,0.35-0.51,0.24C19.02,45.23,17.88,44.67,16.66,44.09z M23.26,55.9c-0.05,0.25-0.28,0.36-0.51,0.25
		c-1.07-0.53-2.21-1.09-3.43-1.66c-0.26-0.13-0.27-0.34-0.01-0.47c1.33-0.63,2.74-1.1,4.2-1.37c0.29-0.05,0.48,0.1,0.42,0.33
		C23.69,53.93,23.47,54.9,23.26,55.9z M24.63,49.78c-0.05,0.25-0.28,0.35-0.51,0.25c-1.08-0.54-2.22-1.09-3.43-1.67
		c-0.26-0.12-0.26-0.33,0-0.47c1.33-0.64,2.74-1.1,4.2-1.37c0.28-0.06,0.47,0.1,0.42,0.33C25.06,47.81,24.84,48.78,24.63,49.78z
		 M30.84,52.79c-0.24,0.95-0.46,1.93-0.67,2.93c-0.05,0.24-0.28,0.35-0.51,0.24c-1.08-0.53-2.22-1.08-3.43-1.66
		c-0.26-0.12-0.27-0.33-0.01-0.47c1.33-0.64,2.74-1.1,4.19-1.37C30.71,52.4,30.9,52.56,30.84,52.79z M31.13,49.52
		c-1.08-0.53-2.22-1.09-3.44-1.65c-0.26-0.12-0.27-0.34,0-0.46c1.33-0.64,2.75-1.1,4.2-1.38c0.29-0.05,0.48,0.1,0.42,0.34
		c-0.24,0.95-0.46,1.92-0.67,2.92C31.58,49.52,31.36,49.63,31.13,49.52z M36.53,57.36c-0.23,0.95-0.45,1.92-0.66,2.91
		c-0.05,0.24-0.28,0.36-0.51,0.24c-1.07-0.53-2.21-1.08-3.43-1.67c-0.26-0.12-0.27-0.33-0.01-0.46c1.33-0.64,2.74-1.1,4.2-1.37
		C36.4,56.97,36.6,57.13,36.53,57.36z M37.91,51.05c-0.24,0.95-0.46,1.92-0.67,2.92c-0.05,0.24-0.28,0.35-0.51,0.24
		c-1.07-0.52-2.21-1.09-3.43-1.66c-0.26-0.12-0.27-0.33-0.01-0.46c1.32-0.64,2.74-1.1,4.2-1.38C37.78,50.66,37.97,50.81,37.91,51.05
		z M38.75,47.29c-0.05,0.25-0.28,0.36-0.5,0.24c-1.08-0.52-2.22-1.08-3.44-1.66c-0.26-0.11-0.27-0.33-0.01-0.46
		c1.33-0.64,2.74-1.1,4.2-1.38c0.29-0.05,0.47,0.1,0.42,0.34C39.19,45.33,38.96,46.3,38.75,47.29z M43.05,58.18
		c-0.05,0.24-0.28,0.35-0.51,0.24c-1.08-0.53-2.21-1.09-3.43-1.66c-0.26-0.12-0.27-0.33-0.01-0.46c1.33-0.64,2.74-1.1,4.2-1.37
		c0.29-0.05,0.48,0.1,0.42,0.34C43.49,56.2,43.27,57.18,43.05,58.18z M44.42,52.06c-0.05,0.24-0.27,0.35-0.51,0.24
		c-1.08-0.53-2.22-1.09-3.43-1.67c-0.26-0.12-0.27-0.33-0.01-0.46c1.33-0.65,2.74-1.11,4.19-1.37c0.29-0.05,0.48,0.1,0.42,0.34
		C44.86,50.09,44.63,51.06,44.42,52.06z M45.37,45.9c-1.08-0.53-2.22-1.09-3.43-1.66c-0.26-0.12-0.28-0.33-0.01-0.46
		c1.33-0.64,2.74-1.1,4.2-1.37c0.29-0.05,0.47,0.1,0.42,0.34c-0.23,0.94-0.46,1.92-0.67,2.92C45.83,45.9,45.6,46.01,45.37,45.9z
		 M51.05,53.71c-0.24,0.95-0.46,1.92-0.67,2.92c-0.05,0.25-0.27,0.35-0.5,0.24c-1.08-0.53-2.21-1.09-3.44-1.66
		c-0.26-0.13-0.27-0.33-0.01-0.46c1.34-0.65,2.74-1.11,4.2-1.38C50.93,53.33,51.12,53.48,51.05,53.71z M52.38,47.6
		c-0.24,0.94-0.46,1.92-0.66,2.92c-0.05,0.25-0.28,0.35-0.51,0.24c-1.08-0.52-2.21-1.08-3.43-1.66c-0.27-0.13-0.27-0.34-0.01-0.46
		c1.33-0.65,2.74-1.11,4.2-1.38C52.26,47.22,52.44,47.37,52.38,47.6z M52.59,44.69c-1.08-0.52-2.22-1.09-3.44-1.66
		c-0.26-0.12-0.26-0.34,0-0.47c1.33-0.64,2.74-1.1,4.2-1.37c0.28-0.05,0.47,0.1,0.41,0.33c-0.24,0.95-0.46,1.92-0.67,2.92
		C53.04,44.69,52.82,44.8,52.59,44.69z M58.16,52.98c-0.23,0.95-0.46,1.92-0.66,2.92c-0.05,0.24-0.28,0.35-0.51,0.24
		c-1.08-0.53-2.22-1.09-3.44-1.66c-0.26-0.12-0.27-0.34-0.01-0.46c1.33-0.64,2.73-1.11,4.2-1.38
		C58.03,52.59,58.22,52.74,58.16,52.98z M59.48,46.91c-0.23,0.96-0.46,1.92-0.66,2.92c-0.06,0.24-0.28,0.35-0.52,0.24
		c-1.07-0.53-2.22-1.08-3.43-1.66c-0.26-0.13-0.26-0.34-0.01-0.46c1.33-0.64,2.74-1.11,4.2-1.38
		C59.36,46.52,59.55,46.67,59.48,46.91z M60.17,43.86c-0.04,0.25-0.27,0.35-0.5,0.25c-1.08-0.53-2.22-1.09-3.44-1.66
		c-0.26-0.12-0.27-0.33-0.01-0.46c1.33-0.64,2.74-1.11,4.2-1.38c0.29-0.05,0.47,0.1,0.42,0.34C60.61,41.89,60.39,42.86,60.17,43.86z
		 M65.2,53.25c-0.24,0.95-0.46,1.92-0.67,2.92c-0.05,0.25-0.28,0.35-0.51,0.25c-1.07-0.53-2.21-1.09-3.43-1.67
		c-0.26-0.12-0.27-0.34,0-0.46c1.33-0.64,2.74-1.1,4.19-1.37C65.07,52.86,65.26,53.01,65.2,53.25z M66.55,47.1
		c-0.23,0.95-0.46,1.92-0.67,2.92c-0.05,0.25-0.28,0.36-0.51,0.25c-1.07-0.53-2.22-1.09-3.43-1.67c-0.26-0.12-0.26-0.34,0-0.47
		c1.33-0.64,2.74-1.1,4.2-1.37C66.43,46.71,66.61,46.87,66.55,47.1z M67.93,41.09c-0.24,0.95-0.46,1.92-0.67,2.92
		c-0.05,0.25-0.27,0.36-0.51,0.25c-1.07-0.54-2.21-1.09-3.43-1.66c-0.27-0.12-0.27-0.34-0.01-0.46c1.33-0.64,2.74-1.11,4.2-1.38
		C67.8,40.7,67.99,40.86,67.93,41.09z M72.71,51.32c-0.05,0.24-0.27,0.34-0.51,0.24c-1.07-0.53-2.21-1.09-3.43-1.66
		c-0.26-0.12-0.26-0.34,0-0.46c1.33-0.64,2.74-1.11,4.19-1.38c0.29-0.05,0.48,0.11,0.42,0.33C73.15,49.34,72.93,50.33,72.71,51.32z
		 M74.75,42.2c-0.23,0.95-0.46,1.93-0.66,2.93c-0.06,0.24-0.28,0.35-0.51,0.24c-1.08-0.53-2.22-1.09-3.44-1.66
		c-0.26-0.12-0.27-0.34,0-0.46c1.32-0.64,2.73-1.11,4.19-1.37C74.62,41.82,74.82,41.97,74.75,42.2z M81.26,44.47
		c-0.23,0.95-0.45,1.93-0.66,2.92c-0.05,0.24-0.29,0.35-0.51,0.24c-1.08-0.53-2.21-1.08-3.43-1.66c-0.26-0.12-0.27-0.34,0-0.46
		c1.33-0.64,2.74-1.1,4.2-1.37C81.13,44.09,81.32,44.24,81.26,44.47z"/>
	<g>
		<path class="st2" d="M108.18,50.36c-4.23-1.42-6.04-1.21-9.29,0c-3,1.11-4.64,0.38-5.8,0.11c0,0-0.16,3.47,3.86,3.06
			c1.71-0.18,4.63-1.02,6.97-0.33c4.54,1.34,3.4,3.41,9.33,7.42c1.83,0.97,3.6-1.03,4.93-0.5c0.7,0.28,1.17,2.72,2,2.89
			c0.84,0.18,2.19-1.87,3.52-1.53c0.79,0.2,1.1,2.68,1.94,2.85c0.83,0.18,2.24-1.78,3.5-1.44c0.95,0.25,1.07,2.57,2.15,2.82
			c0.84,0.19,2.18-1.82,3.24-1.57c0.86,0.2,1,1.28,2.38,1.94c1.28,0.61,2.46,0.56,2.94-0.15c0.62-0.92-0.12-1.87-1.83-2.66
			c-2.77-1.28-7.43-2.56-12.02-3.89c-4.6-1.33-8.6-3-8.88-5.32c-0.12-0.98,0.36-0.87,0.56-0.8c-1.77-1.31-2.14-2.55-2.05-3.24l0,0
			c0,0,0,0,0,0h0l0,0c-0.17,0.04-0.33,0.1-0.51,0.15C113.88,50.49,111.75,51.56,108.18,50.36z"/>
	</g>
</g>
</svg>
