<?xml version="1.0" encoding="utf-8"?>
<!-- Generator: Adobe Illustrator 24.1.0, SVG Export Plug-In . SVG Version: 6.00 Build 0)  -->
<svg version="1.1" id="Layer_1" xmlns="http://www.w3.org/2000/svg" xmlns:xlink="http://www.w3.org/1999/xlink" x="0px" y="0px"
	 viewBox="0 0 433.7 90.71" style="enable-background:new 0 0 433.7 90.71;" xml:space="preserve">
<style type="text/css">
	.Arched_x0020_Green{fill:url(#SVGID_1_);stroke:#FFFFFF;stroke-width:0.25;stroke-miterlimit:1;}
</style>
<linearGradient id="SVGID_1_" gradientUnits="userSpaceOnUse" x1="-0.374" y1="128.8241" x2="0.3331" y2="128.117">
	<stop  offset="0" style="stop-color:#249E2E"/>
	<stop  offset="0.9831" style="stop-color:#1C371D"/>
</linearGradient>
<path class="st0" d="M200.61,76.24c15.92,0,30.02-10.71,30.02-28.89c0-18.18-14.09-28.89-30.02-28.89c-15.92,0-30.02,10.71-30.02,28.89
	C170.6,65.53,184.69,76.24,200.61,76.24L200.61,76.24z M97.92,75.12h11.62l-26.7-55.52H71.71L47.05,75.12h10.29l5.35-12.54h29.45
	L97.92,75.12z M385.92,19.59h-42.13v55.52h42.98v-8.88h-33.12V51.72h28.18v-8.88h-28.18V28.47h32.27V19.59z M238.24,69.62
	c2.26,1.83,9.02,6.62,20.86,6.62c11.98,0,21.7-6.48,21.7-16.63c0-21.14-30.58-14.37-30.58-25.93c0-3.24,2.68-5.92,9.72-5.92
	c8.46,0,13.95,3.8,16.06,5.5l4.09-8.17c-2.54-2.4-10.29-6.62-20.15-6.62c-14.8,0-20.86,8.31-20.86,16.49
	c0,19.16,30.58,13.67,30.58,25.08c0,4.79-4.79,6.9-10.29,6.9c-8.31,0-14.94-3.66-17.76-5.78L238.24,69.62z M141.57,28.33
	c8.31,0,12.96,4.51,15.64,6.91l6.9-6.76c-2.25-2.54-8.88-10.01-22.69-10.01c-15.92,0-30.02,10.71-30.02,28.89
	c0,18.18,13.95,28.89,29.88,28.89c12.26,0,20.57-6.62,23.25-9.02l-5.5-7.75c-4.37,3.67-11.27,6.91-17.61,6.91
	c-10.99,0-19.31-8.31-19.31-19.03C122.12,36.64,130.44,28.33,141.57,28.33L141.57,28.33z M200.61,66.38
	c-10.99,0-19.3-8.31-19.3-19.03c0-10.71,8.31-19.02,19.3-19.02c10.99,0,19.31,8.31,19.31,19.02
	C219.92,58.06,211.6,66.38,200.61,66.38L200.61,66.38z M305.74,28.47v46.64h9.86V28.47h19.45v-8.88h-48.2v8.88H305.74z M10.79,19.59
	H0.93v55.52h39.36v-8.88h-29.5V19.59z M76.93,29.32L88.2,53.98H66.36L76.93,29.32z"/>
</svg>
