<?xml version="1.0" encoding="utf-8"?>
<!-- Generator: Adobe Illustrator 22.1.0, SVG Export Plug-In . SVG Version: 6.00 Build 0)  -->
<svg version="1.1" id="Calque_1" xmlns="http://www.w3.org/2000/svg" xmlns:xlink="http://www.w3.org/1999/xlink" x="0px" y="0px"
	 viewBox="0 0 40 40" style="enable-background:new 0 0 40 40;" xml:space="preserve">
<style type="text/css">
	.st0{fill:#292929;}
</style>
<title>Plan de travail 1</title>
<path class="st0" d="M6,29.3c0-0.4,0.3-0.8,0.8-0.8l0,0h26.4c0.4,0,0.8,0.3,0.8,0.8l0,0c0,0.4-0.3,0.8-0.8,0.8H6.8
	C6.3,30.1,6,29.8,6,29.3L6,29.3z M6.8,20.8h26.4c0.4,0,0.8-0.3,0.8-0.8c0-0.4-0.3-0.8-0.8-0.8H6.8C6.3,19.2,6,19.6,6,20
	S6.3,20.8,6.8,20.8z M6.8,11.5h26.4c0.4,0,0.8-0.3,0.8-0.8l0,0c0-0.5-0.3-0.8-0.8-0.8H6.8C6.3,9.9,6,10.2,6,10.7l0,0
	C6,11.1,6.3,11.5,6.8,11.5L6.8,11.5z"/>
</svg>
