<?xml version="1.0" encoding="utf-8"?>
<!-- Generator: Adobe Illustrator 23.0.1, SVG Export Plug-In . SVG Version: 6.00 Build 0)  -->
<svg version="1.1" id="Calque_1" xmlns="http://www.w3.org/2000/svg" xmlns:xlink="http://www.w3.org/1999/xlink" x="0px" y="0px"
	 viewBox="0 0 30 30" style="enable-background:new 0 0 30 30;" xml:space="preserve">
<style type="text/css">
	.st0{fill:#231F20;}
</style>
<path class="st0" d="M20,11.4c-0.1,0-0.1-0.2-0.2-0.2c-0.1,0-0.2,0.1-0.2,0.1c0,0-0.1-0.2-0.1-0.2c-0.1,0-0.2,0.1-0.2,0.1
	c0,0-0.1-0.2-0.1-0.2c-0.1,0-0.2,0.1-0.2,0.1c0,0-0.1-0.2-0.1-0.2c-0.1,0-0.2,0.1-0.2,0.1c0,0-0.2,0-0.3-0.1c0,0-0.1-0.1-0.1-0.1
	c0,0,0,0,0,0.1c0,0.2,0.3,0.3,0.6,0.4c0.3,0.1,0.7,0.2,0.9,0.3c0.1,0.1,0.2,0.1,0.1,0.2c0,0.1-0.1,0.1-0.2,0c-0.1,0-0.1-0.1-0.2-0.1
	c-0.1,0-0.2,0.1-0.2,0.1c-0.1,0-0.1-0.2-0.2-0.2c-0.1,0-0.2,0.1-0.3,0.1c-0.1,0-0.1-0.2-0.1-0.2c-0.1,0-0.2,0.1-0.3,0.1
	c-0.1,0-0.1-0.2-0.1-0.2c-0.1,0-0.2,0.1-0.4,0c-0.4-0.3-0.3-0.4-0.7-0.5c-0.2,0-0.4,0-0.5,0c-0.3,0-0.3-0.2-0.3-0.2
	c0.1,0,0.2,0.1,0.4,0c0.2-0.1,0.4-0.1,0.7,0c0.3,0.1,0.4,0,0.5,0c0,0,0.1,0,0.2,0s0.2,0.1,0.2,0.1c0.1,0,0-0.2,0.2-0.2
	c0,0,0.2,0.1,0.2,0.1c0.1,0,0-0.2,0.2-0.2c0.1,0,0.2,0.1,0.2,0.1c0.1,0,0-0.2,0.2-0.2c0.1,0,0.2,0.1,0.2,0.1c0.1,0,0-0.2,0.2-0.2
	c0,0,0.2,0.1,0.2,0.1v0C20,10.1,20,10,20,9.9c0,0,0,0,0.1-0.1c0.1-0.1,0.2-0.2,0.1-0.3c-0.1-0.1-0.2-0.1-0.4-0.1
	c-0.2,0-1.5,0.3-1.5,0.3c-0.2-0.4-0.3-0.1-0.6-0.2c-0.2,0-0.5-0.2-1,0.2c-0.3-0.1-0.5,0-0.7,0.1c-0.3-0.1-0.8-0.4-1.9-0.4
	c-0.3,0-1,0.1-2.1,0.4c-0.3,0.1-0.5,0.1-0.6-0.1c-0.1-0.2,0.2-0.4,0.6-0.6c1.1-0.5,1.8-0.4,3.2-1.2c0.8-0.4,0.8-0.9,0.8-1
	C16.1,7,16,7,16,7c-0.3,0.4-0.3,0.3-0.4,0.3c-0.1-0.1-0.2,0.1-0.3,0.2c-0.1,0.1-0.1,0-0.2-0.1c-0.1-0.1-0.2,0.2-0.3,0.2
	c-0.1,0.1-0.1,0-0.2,0c0,0-0.1,0-0.1,0c-0.2,0.2-0.3,0.2-0.4,0.1c-0.1-0.1-0.1-0.1-0.2,0.1c-0.1,0.1-0.2,0.2-0.3,0.1
	c0-0.1-0.1-0.2-0.3,0C13.1,8,13.1,8,13,7.9c0-0.1,0-0.2-0.2,0C12.6,8,12.5,8.1,12.4,8c-0.1-0.1-0.2,0-0.3,0.1
	c-0.1,0.1-0.1,0.2-0.2,0.1c-0.1-0.1-0.2,0-0.3,0.2c-0.1,0.1-0.1,0.1-0.2,0c-0.1-0.1-0.2,0.2-0.3,0.3c0,0-0.1,0-0.2,0
	c-0.1-0.1-0.3,0.3-0.3,0.4c-0.1,0.2-0.2,0-0.3,0.1C10,9.4,9.8,9.7,9.7,10.4c-0.1,0.8,0.2,1.4,0.5,1.6c0,0,0,0.1-0.1,0.2
	c-0.1,0.2-0.1,0.5,0,0.7c0.1,0.2,0.3,0.5,0.4,0.2c0-0.1,0.1-0.1,0.2,0c0.2,0.1,0.2-0.1,0.2-0.2c0-0.1,0.1-0.1,0.2,0
	c0.1,0.1,0.1,0,0.2-0.1c0.1-0.4-0.1-0.5-0.3-0.5c-0.1,0-0.3,0-0.3,0c0.3-0.4,0.3-0.7,0-0.9c0,0,0.1,0,0.1,0c0.1,0,0.1,0.1,0.2,0.2
	c0,0.1,0.1,0.2,0,0.6c0.1,0,0.3,0,0.4,0.3c0.1,0,1,0.1,1.4,0.1c0.1,0,0.2-0.2,0.3-0.3c0.2-0.1,0.3-0.3,0.5-0.2
	c-0.3,0.1-0.5,0.3-0.5,0.6c0,0.2,0.1,0.3,0.2,0.4c0.1,0.1,0.2,0.3,0.2,0.4c0.1,0.2,0.2,0.2,0.2,0c0-0.2,0.1-0.2,0.2-0.1
	c0.1,0.1,0.2,0.1,0.2-0.1c0-0.2,0-0.2,0.2-0.1c0.1,0.1,0.2,0.1,0.2-0.1c0-0.2,0.1-0.2,0.2-0.1c0,0,0.1,0.1,0.1,0
	c0.1,0,0.1-0.2,0.1-0.3c0-0.1-0.1-0.2-0.5-0.3c-0.1,0-0.1-0.1-0.1-0.1c1.1,0.1,2-0.1,2.6-0.5c0.8,0.2,1.9,0.2,2.2,0.2
	c0.4,0,0.6,0,0.9-0.1c0.2-0.1,0.2-0.3,0.1-0.4C20.1,11.5,20.1,11.5,20,11.4z M17.9,9.8c0-0.1,0.1-0.1,0.1-0.1c0.1,0,0.1,0.1,0.1,0.1
	L17.9,9.8C17.9,9.9,17.9,9.9,17.9,9.8z M17.4,9.8c0.1,0,0.2,0.1,0.2,0.2c0,0-0.2,0-0.3,0.1c-0.1,0-0.1,0-0.1-0.1
	C17.3,9.9,17.3,9.8,17.4,9.8z M11.9,8.4C11.9,8.4,12,8.4,11.9,8.4c0,0.1,0,0.2,0,0.2c0,0,0,0,0,0c-0.1,0-0.2-0.1-0.2-0.1
	c0,0,0,0,0,0C11.7,8.5,11.8,8.4,11.9,8.4z M11.5,8.6C11.5,8.6,11.5,8.6,11.5,8.6c0,0.1,0,0.2,0,0.2c0,0,0,0,0,0
	c-0.1,0-0.2-0.1-0.2-0.1c0,0,0,0,0,0C11.2,8.7,11.4,8.6,11.5,8.6z M10.9,10.1c0.1,0,0.2-0.1,0.3-0.1c0,0,0,0,0,0c0,0.1,0,0.1,0,0.2
	c0,0,0,0,0,0C11,10.2,11,10.2,10.9,10.1C10.9,10.1,10.9,10.1,10.9,10.1z M10.8,9.7C10.8,9.7,10.8,9.7,10.8,9.7
	c0.1-0.1,0.2-0.1,0.3-0.1c0,0,0,0,0,0c0,0.1,0,0.1,0,0.2c0,0,0,0,0,0C11,9.8,10.9,9.7,10.8,9.7z M11,9.3C11,9.3,11,9.3,11,9.3
	c0.1-0.1,0.2-0.1,0.3-0.1c0,0,0,0,0,0c0,0.1,0,0.1,0,0.2c0,0,0,0,0,0C11.2,9.4,11.1,9.4,11,9.3z M11,8.9C11.1,8.9,11.1,8.9,11,8.9
	c0,0.1,0,0.2,0,0.2c0,0,0,0,0,0c-0.1,0-0.2-0.1-0.2-0.1c0,0,0,0,0,0C10.8,8.9,10.9,8.9,11,8.9z M10.7,9.3
	C10.7,9.3,10.8,9.3,10.7,9.3c0,0.1,0,0.2,0,0.2c0,0,0,0,0,0c-0.1,0-0.2-0.1-0.2-0.1c0,0,0,0,0,0C10.5,9.3,10.6,9.3,10.7,9.3z
	 M10.3,9.8c0.1,0,0.2-0.1,0.3-0.1c0,0,0,0,0,0c0,0.1,0,0.1,0,0.2c0,0,0,0,0,0C10.5,9.9,10.4,9.9,10.3,9.8
	C10.3,9.8,10.3,9.8,10.3,9.8z M10.4,10.2C10.3,10.2,10.3,10.2,10.4,10.2c0.1-0.1,0.2-0.1,0.3-0.1c0,0,0,0,0,0c0,0.1,0,0.1,0,0.2
	c0,0,0,0,0,0C10.5,10.3,10.4,10.3,10.4,10.2z M10.9,10.7C10.9,10.8,10.9,10.8,10.9,10.7c-0.1,0-0.2-0.1-0.3-0.1c0,0,0,0,0,0
	c0.1,0,0.2-0.1,0.3-0.1c0,0,0,0,0,0C10.9,10.6,10.9,10.7,10.9,10.7z M11.3,11C11.3,11,11.3,11,11.3,11c-0.1,0-0.2-0.1-0.3-0.1
	c0,0,0,0,0,0c0.1,0,0.2-0.1,0.3-0.1c0,0,0,0,0,0C11.4,10.8,11.4,10.9,11.3,11z M11.4,10.5C11.4,10.5,11.4,10.6,11.4,10.5
	c-0.1,0-0.2-0.1-0.3-0.1c0,0,0,0,0,0c0.1,0,0.2-0.1,0.3-0.1c0,0,0,0,0,0C11.5,10.4,11.5,10.5,11.4,10.5z M11.9,11
	C11.8,11,11.8,11,11.9,11c-0.1,0-0.2-0.1-0.3-0.1c0,0,0,0,0,0c0.1,0,0.2-0.1,0.3-0.1c0,0,0,0,0,0C11.9,10.8,11.9,10.9,11.9,11z
	 M11.9,10.5c-0.1,0-0.2-0.1-0.2-0.1c0,0,0,0,0,0c0.1,0,0.2-0.1,0.3-0.1c0,0,0,0,0,0C12,10.3,12,10.4,11.9,10.5
	C12,10.5,11.9,10.5,11.9,10.5z M12.3,11.3C12.3,11.3,12.2,11.3,12.3,11.3c-0.1,0-0.2-0.1-0.3-0.1c0,0,0,0,0,0c0.1,0,0.2-0.1,0.3-0.1
	c0,0,0,0,0,0C12.3,11.1,12.3,11.2,12.3,11.3z M12.4,10.8C12.4,10.8,12.3,10.9,12.4,10.8c-0.1,0-0.2-0.1-0.3-0.1c0,0,0,0,0,0
	c0.1,0,0.2-0.1,0.3-0.1c0,0,0,0,0,0C12.4,10.7,12.4,10.8,12.4,10.8z M12.4,10.4c-0.1,0-0.2-0.1-0.2-0.1c0,0,0,0,0,0
	c0.1,0,0.2-0.1,0.3-0.1c0,0,0,0,0,0C12.5,10.2,12.5,10.3,12.4,10.4C12.5,10.4,12.5,10.4,12.4,10.4z M12.8,11.1
	C12.8,11.2,12.8,11.2,12.8,11.1c-0.1,0-0.2-0.1-0.3-0.1c0,0,0,0,0,0c0.1,0,0.2-0.1,0.3-0.1c0,0,0,0,0,0C12.8,11,12.8,11.1,12.8,11.1
	z M12.9,10.7C12.9,10.7,12.9,10.7,12.9,10.7c-0.1,0-0.2-0.1-0.3-0.1c0,0,0,0,0,0c0.1,0,0.2-0.1,0.3-0.1c0,0,0,0,0,0
	C12.9,10.6,12.9,10.6,12.9,10.7z M13,10.2c-0.1,0-0.2-0.1-0.2-0.1c0,0,0,0,0,0c0.1,0,0.2-0.1,0.3-0.1c0,0,0,0,0,0
	C13,10.1,13,10.2,13,10.2C13,10.2,13,10.3,13,10.2z M13.3,11C13.3,11,13.3,11.1,13.3,11c-0.1,0-0.2-0.1-0.3-0.1c0,0,0,0,0,0
	c0.1,0,0.2-0.1,0.3-0.1c0,0,0,0,0,0C13.3,10.9,13.3,11,13.3,11z M13.4,10.6C13.4,10.6,13.4,10.6,13.4,10.6c-0.1,0-0.2-0.1-0.3-0.1
	c0,0,0,0,0,0c0.1,0,0.2-0.1,0.3-0.1c0,0,0,0,0,0C13.4,10.4,13.4,10.5,13.4,10.6z M13.5,10.2c-0.1,0-0.2-0.1-0.2-0.1c0,0,0,0,0,0
	c0.1,0,0.2-0.1,0.3-0.1c0,0,0,0,0,0C13.5,10,13.5,10.1,13.5,10.2C13.5,10.2,13.5,10.2,13.5,10.2z M13.8,11C13.8,11,13.8,11,13.8,11
	c-0.1,0-0.2-0.1-0.3-0.1c0,0,0,0,0,0c0.1,0,0.2-0.1,0.3-0.1c0,0,0,0,0,0C13.9,10.8,13.8,10.9,13.8,11z M13.9,10.5
	C13.9,10.5,13.9,10.6,13.9,10.5c-0.1,0-0.2-0.1-0.3-0.1c0,0,0,0,0,0c0.1,0,0.2-0.1,0.3-0.1c0,0,0,0,0,0C14,10.4,13.9,10.5,13.9,10.5
	z M14,10.1C14,10.1,14,10.1,14,10.1c-0.1,0-0.2-0.1-0.3-0.1c0,0,0,0,0,0c0.1,0,0.2-0.1,0.3-0.1c0,0,0,0,0,0C14.1,10,14,10,14,10.1z
	 M14.3,11C14.3,11,14.3,11,14.3,11c-0.1,0-0.2-0.1-0.3-0.1c0,0,0,0,0,0c0.1,0,0.2-0.1,0.3-0.1c0,0,0,0,0,0
	C14.4,10.8,14.4,10.9,14.3,11z M14.4,10.5C14.4,10.6,14.4,10.6,14.4,10.5c-0.1,0-0.2-0.1-0.3-0.1c0,0,0,0,0,0c0.1,0,0.2-0.1,0.3-0.1
	c0,0,0,0,0,0C14.5,10.4,14.4,10.5,14.4,10.5z M14.5,10.1C14.5,10.1,14.5,10.1,14.5,10.1c-0.1,0-0.2-0.1-0.3-0.1c0,0,0,0,0,0
	c0.1,0,0.2-0.1,0.3-0.1c0,0,0,0,0,0C14.6,10,14.5,10,14.5,10.1z M14.9,10.6C14.9,10.7,14.9,10.7,14.9,10.6c-0.1,0-0.2-0.1-0.3-0.1
	c0,0,0,0,0,0c0.1,0,0.2-0.1,0.3-0.1c0,0,0,0,0,0C15,10.5,14.9,10.6,14.9,10.6z M15,10.2C15,10.2,15,10.2,15,10.2
	c-0.1,0-0.2-0.1-0.3-0.1c0,0,0,0,0,0c0.1,0,0.2-0.1,0.3-0.1c0,0,0,0,0,0C15.1,10,15,10.1,15,10.2z M15.5,10.4
	C15.5,10.4,15.5,10.4,15.5,10.4c-0.1,0-0.2-0.1-0.3-0.1c0,0,0,0,0,0c0.1,0,0.2-0.1,0.3-0.1c0,0,0,0,0,0
	C15.5,10.2,15.5,10.3,15.5,10.4z M24.9,10.9C24.9,5.4,20.5,1,15,1s-9.9,4.4-9.9,9.9c0,1.9,0.6,3.7,1.5,5.2l0,0L15,29l8.4-12.8l0,0
	C24.4,14.6,24.9,12.8,24.9,10.9z M22.5,15.7L15,27.2L7.5,15.7c0,0,0-0.1-0.1-0.1c-0.9-1.4-1.4-3.1-1.4-4.7C6.1,6,10.1,2,15,2
	s8.9,4,8.9,8.9c0,1.7-0.5,3.3-1.4,4.7C22.5,15.7,22.5,15.7,22.5,15.7z"/>
</svg>
