<?xml version="1.0" encoding="utf-8"?>
<!-- Generator: Adobe Illustrator 22.1.0, SVG Export Plug-In . SVG Version: 6.00 Build 0)  -->
<svg version="1.1" id="Calque_1" xmlns="http://www.w3.org/2000/svg" xmlns:xlink="http://www.w3.org/1999/xlink" x="0px" y="0px"
	 viewBox="0 0 40 40" style="enable-background:new 0 0 40 40;" xml:space="preserve">
<style type="text/css">
	.st0{fill:#231F20;}
</style>
<path class="st0" d="M37.7,36.8L27.5,26.6c2.6-2.7,4-6.2,4-10c0-3.9-1.5-7.5-4.3-10.3S20.8,2.1,16.9,2l0,0C12.9,2,9.4,3.6,6.6,6.3
	s-4.3,6.4-4.3,10.3s1.5,7.5,4.3,10.3c2.7,2.8,6.4,4.3,10.3,4.3l0,0c3.6,0,6.9-1.3,9.6-3.6l10.2,10.2c0.1,0.1,0.3,0.2,0.5,0.2
	s0.4-0.1,0.5-0.2C37.8,37.5,37.8,37,37.7,36.8z M16.9,29.8L16.9,29.8c-3.5,0-6.8-1.4-9.3-3.9s-3.9-5.8-3.8-9.3
	c0-3.5,1.4-6.8,3.9-9.3s5.8-3.8,9.3-3.8l0,0c3.5,0,6.8,1.4,9.3,3.9s3.9,5.8,3.8,9.3c0,3.5-1.4,6.8-3.9,9.3
	C23.6,28.4,20.4,29.8,16.9,29.8z"/>
</svg>
